<svg width="700" height="500" viewBox="0 0 700 500" fill="none" xmlns="http://www.w3.org/2000/svg">
<path d="M0 0H700V500H0V0Z" fill="#1E293B"/>
<path fill-rule="evenodd" clip-rule="evenodd" d="M330.464 500H0V359H35.0097C46.4898 359 57.4998 363.561 65.6179 371.68L80.8785 386.942C88.9966 395.062 100.007 399.623 111.487 399.623H212.974C224.454 399.623 235.465 404.184 243.583 412.303L328.141 496.872C329.072 497.804 329.852 498.859 330.464 500Z" fill="#A3E635"/>
<path fill-rule="evenodd" clip-rule="evenodd" d="M473.288 116.238L415.158 58.1018V58.1013C413.523 56.4659 412.225 54.5243 411.34 52.3874C410.455 50.2505 410 47.9602 410 45.6473C410 35.9205 417.884 28.0356 427.609 28.0356C429.921 28.0356 432.211 27.5801 434.347 26.6949C436.484 25.8097 438.425 24.5123 440.06 22.8767C446.294 16.6408 446.876 6.89138 441.804 0H700V224H665.427C653.947 223.999 642.937 219.438 634.82 211.319L565.107 141.599C556.989 133.479 545.979 128.918 534.499 128.918H503.897C492.416 128.918 481.406 124.357 473.288 116.238Z" fill="#A3E635"/>
<path fill-rule="evenodd" clip-rule="evenodd" d="M398.401 264.957C382.833 253.686 380.403 254.586 349.656 283C378.537 252.75 379.452 250.368 367.995 235.043C383.563 246.314 385.993 245.414 416.74 217C387.859 247.25 386.945 249.632 398.401 264.957ZM514.97 264.784C513.252 264.784 511.93 264.321 511.007 263.394C510.083 262.467 509.621 261.194 509.621 259.585V239.397H500.585V235.225H509.621V224.708H514.471V235.225H524.301V239.397H514.471V258.867C514.471 260.076 515.062 260.685 516.254 260.685H522.953V264.794H514.961L514.97 264.784ZM233.587 228.126V261.794H239.915V228.126H233.587ZM299.313 261.112V254.649L308.616 251.177L299.313 247.705V241.242L317.44 247.887H317.486V254.531H317.44L299.313 261.139V261.121V261.112ZM291.524 232.098L280.862 265.766H287.191L297.853 232.098H291.524ZM194.182 247.678V241.215L176.037 247.85H176V254.486H176.037L194.182 261.13V254.659L184.879 251.168L194.182 247.687V247.678ZM226.907 247.45C227.009 244.823 226.067 242.251 224.265 240.306L224.274 240.315C222.463 238.461 219.941 237.452 217.326 237.561C214.527 237.443 211.811 238.461 209.797 240.388V238.261H203.468V261.803H209.797V251.377C209.797 245.96 211.774 243.26 215.737 243.26C217.086 243.205 218.38 243.76 219.257 244.769C220.181 245.896 220.653 247.332 220.579 248.777V261.794H226.907V247.45ZM268.354 261.794H273.62L282.499 238.206H275.736L270.756 252.359L265.619 238.206H260.685L255.549 252.313L250.569 238.206H243.806L252.675 261.794H257.951L263.18 247.932L268.354 261.794ZM347.523 265.63C344.492 265.63 341.831 264.994 339.531 263.721C337.24 262.448 335.457 260.667 334.182 258.367C332.916 256.067 332.278 253.413 332.278 250.386V249.659C332.278 246.596 332.916 243.915 334.182 241.615C335.447 239.315 337.212 237.534 339.466 236.261C341.721 234.989 344.298 234.352 347.209 234.352C350.119 234.352 352.53 234.943 354.701 236.134C356.872 237.325 358.572 239.024 359.801 241.242C361.03 243.46 361.649 246.06 361.649 249.041V251.214H337.129C337.249 254.395 338.293 256.886 340.261 258.676C342.229 260.467 344.686 261.367 347.634 261.367C350.211 261.367 352.198 260.785 353.593 259.612C354.988 258.44 356.05 257.049 356.789 255.44L360.965 257.431C360.346 258.676 359.496 259.931 358.415 261.176C357.325 262.421 355.921 263.476 354.175 264.321C352.429 265.166 350.211 265.593 347.504 265.593L347.523 265.63ZM337.203 247.314H356.743C356.577 244.578 355.625 242.442 353.888 240.906C352.142 239.379 349.925 238.606 347.218 238.606C344.511 238.606 342.219 239.37 340.455 240.906C338.69 242.442 337.609 244.578 337.193 247.314H337.203ZM406.883 235.225V276.874L406.892 276.883H411.743V260.14H412.602C413.091 261.031 413.784 261.894 414.69 262.74C415.595 263.585 416.769 264.276 418.228 264.821C419.679 265.366 421.453 265.639 423.541 265.639C426.165 265.639 428.558 265.03 430.701 263.821C432.844 262.612 434.563 260.858 435.829 258.558C437.094 256.259 437.732 253.541 437.732 250.396V249.614C437.732 246.433 437.085 243.706 435.792 241.452C434.498 239.197 432.78 237.452 430.627 236.225C428.474 234.998 426.109 234.38 423.532 234.38C420.418 234.38 417.988 234.962 416.251 236.134C414.505 237.307 413.249 238.634 412.472 240.124H411.613V235.225H406.883ZM429.833 258.458C427.892 260.422 425.361 261.394 422.247 261.394C419.18 261.394 416.648 260.413 414.662 258.458C412.676 256.504 411.678 253.777 411.678 250.269V249.723C411.678 246.215 412.676 243.488 414.662 241.533C416.648 239.579 419.134 238.597 422.247 238.597C425.361 238.597 427.883 239.579 429.833 241.533C431.782 243.488 432.752 246.215 432.752 249.723V250.269C432.752 253.777 431.773 256.504 429.833 258.458ZM458.798 265.63C455.767 265.63 453.106 264.994 450.806 263.721C448.515 262.448 446.731 260.667 445.456 258.367C444.191 256.067 443.553 253.413 443.553 250.386V249.659C443.553 246.596 444.191 243.915 445.456 241.615C446.722 239.315 448.487 237.534 450.741 236.261C452.996 234.989 455.573 234.352 458.483 234.352C461.394 234.352 463.805 234.943 465.976 236.134C468.147 237.325 469.847 239.024 471.076 241.242C472.305 243.46 472.924 246.06 472.924 249.041V251.214H448.404C448.524 254.395 449.568 256.886 451.536 258.676C453.504 260.467 455.961 261.367 458.908 261.367C461.486 261.367 463.473 260.785 464.868 259.612C466.263 258.44 467.325 257.049 468.064 255.44L472.24 257.431C471.621 258.676 470.771 259.931 469.69 261.176C468.6 262.421 467.196 263.476 465.45 264.321C463.703 265.166 461.486 265.593 458.779 265.593L458.798 265.63ZM448.478 247.314H468.018C467.852 244.578 466.9 242.442 465.163 240.906C463.417 239.379 461.2 238.606 458.493 238.606C455.786 238.606 453.494 239.37 451.73 240.906C449.965 242.442 448.884 244.578 448.468 247.314H448.478ZM480.074 235.225V264.785H484.925V246.769C484.925 244.269 485.59 242.424 486.92 241.233C488.251 240.043 490.006 239.452 492.177 239.452H496.048V235.098H492.482C490.681 235.098 489.23 235.398 488.121 236.007C487.013 236.616 486.2 237.561 485.664 238.852H484.805V235.225H480.074Z" fill="url(#paint0_linear_22_2)"/>
<defs>
<linearGradient id="paint0_linear_22_2" x1="515.614" y1="247.914" x2="173.555" y2="248.568" gradientUnits="userSpaceOnUse">
<stop stop-color="#859398"/>
<stop offset="0.39918" stop-color="#D1F593"/>
<stop offset="1" stop-color="#859398"/>
</linearGradient>
</defs>
</svg>
